<?xml version="1.0" standalone="no"?>
<!DOCTYPE svg PUBLIC "-//W3C//DTD SVG 20010904//EN"
 "http://www.w3.org/TR/2001/REC-SVG-20010904/DTD/svg10.dtd">
<svg version="1.0" xmlns="http://www.w3.org/2000/svg"
 width="1809.000000pt" height="2084.000000pt" viewBox="0 0 1809.000000 2084.000000"
 preserveAspectRatio="xMidYMid meet">

<g transform="translate(0.000000,2084.000000) scale(0.100000,-0.100000)"
fill="#000000" stroke="none">
<path d="M8890 20745 c-63 -37 -160 -93 -215 -125 -188 -109 -815 -471 -1030
-595 -125 -72 -589 -339 -710 -410 -55 -32 -156 -90 -225 -130 -280 -162
-1894 -1093 -2015 -1163 -71 -41 -245 -141 -385 -222 -759 -439 -990 -572
-1585 -915 -93 -54 -267 -154 -385 -222 -219 -127 -285 -165 -745 -431 -143
-82 -390 -225 -550 -317 -159 -93 -346 -200 -415 -240 -69 -40 -183 -106 -255
-147 -71 -42 -172 -100 -224 -130 -69 -40 -99 -63 -113 -89 -17 -33 -18 -202
-16 -5201 l3 -5167 21 -28 c23 -30 31 -35 304 -193 165 -95 312 -180 620 -358
52 -30 151 -87 220 -127 69 -40 211 -121 315 -182 105 -61 323 -187 485 -280
162 -93 338 -195 390 -225 52 -30 241 -139 420 -242 179 -104 386 -223 460
-266 74 -43 250 -144 390 -225 140 -81 300 -173 355 -205 55 -32 215 -124 355
-205 140 -81 296 -171 345 -200 50 -28 241 -139 425 -245 184 -106 522 -301
750 -433 228 -132 487 -281 575 -332 88 -51 264 -152 390 -225 219 -127 333
-192 615 -355 69 -39 244 -141 390 -225 332 -192 366 -212 805 -464 320 -185
364 -207 395 -203 31 4 188 90 525 287 44 25 143 83 220 127 77 44 253 146
390 225 138 79 417 240 620 358 204 117 411 237 460 265 50 29 252 146 450
260 198 115 486 281 640 370 290 167 693 400 1135 655 140 81 300 173 355 205
148 86 405 234 615 355 102 59 246 142 320 185 74 43 191 111 260 150 69 40
287 166 485 280 198 115 450 260 560 323 110 63 236 136 280 162 44 26 188
110 320 186 380 218 660 379 945 544 146 84 294 169 329 189 35 20 72 50 83
66 17 29 18 195 18 5200 0 5029 -1 5171 -19 5201 -13 22 -84 68 -267 174 -137
79 -402 232 -589 340 -187 108 -414 240 -505 292 -440 253 -1425 822 -1820
1050 -118 69 -305 177 -415 240 -359 207 -778 449 -880 508 -55 32 -172 99
-260 150 -88 51 -205 118 -260 150 -310 180 -561 324 -805 465 -151 87 -369
213 -485 280 -115 67 -241 140 -280 162 -93 53 -953 549 -1080 623 -86 50
-522 302 -1010 583 -77 44 -174 101 -215 125 -116 70 -139 68 -280 -13z m-470
-5842 l0 -4128 -118 -66 c-64 -37 -173 -99 -242 -139 -69 -40 -215 -124 -325
-188 -263 -151 -496 -286 -675 -390 -80 -46 -239 -138 -355 -204 -115 -67
-246 -142 -290 -168 -44 -26 -219 -127 -390 -225 -170 -98 -389 -224 -485
-280 -96 -56 -310 -180 -475 -275 -406 -234 -838 -483 -1145 -661 -424 -244
-895 -516 -1070 -617 -91 -52 -217 -125 -280 -162 -63 -37 -205 -119 -315
-182 -310 -178 -906 -522 -947 -547 l-38 -23 0 3401 c0 1871 2 3401 4 3401 3
0 34 -51 69 -112 36 -62 155 -268 264 -458 110 -190 262 -453 338 -585 76
-132 177 -307 225 -390 48 -82 146 -251 217 -375 71 -124 173 -299 225 -390
52 -91 171 -295 263 -455 194 -337 406 -705 655 -1135 97 -168 191 -331 209
-363 18 -31 41 -62 51 -67 45 -24 39 -27 545 265 530 305 515 295 515 342 0
33 -50 124 -63 116 -6 -3 -7 -1 -3 5 4 6 -37 87 -90 179 -54 92 -121 209 -149
258 -28 50 -85 149 -127 220 -41 72 -153 265 -248 430 -95 165 -212 368 -260
450 -438 758 -738 1278 -875 1515 -61 107 -138 240 -170 295 -75 130 -322 558
-493 855 -75 129 -146 253 -159 275 -12 22 -23 43 -23 48 0 4 1203 7 2674 7
l2675 0 20 26 c21 26 21 35 21 594 0 559 0 568 -21 594 l-20 26 -2511 2 -2511
3 289 167 c159 91 372 214 474 273 353 204 587 339 935 540 193 111 528 304
745 430 217 126 463 267 545 315 83 47 227 131 320 185 94 54 226 131 295 170
178 102 434 250 655 378 105 61 246 143 315 182 69 40 181 105 250 145 69 39
292 168 495 285 204 117 417 241 475 274 58 34 106 61 107 61 2 0 3 -1857 3
-4127z m1465 4002 c190 -110 267 -155 710 -409 171 -98 346 -200 390 -226 44
-26 172 -101 285 -165 265 -153 664 -383 905 -522 105 -61 251 -145 325 -188
74 -43 239 -138 365 -210 127 -73 302 -175 390 -226 88 -51 302 -174 475 -274
173 -100 401 -231 505 -291 105 -61 314 -182 465 -269 151 -87 327 -188 390
-225 63 -37 196 -114 295 -171 l180 -104 -2513 -5 -2514 -5 -19 -24 c-18 -22
-19 -47 -19 -591 0 -544 1 -569 19 -591 l19 -24 2681 -5 2681 -5 -43 -75 c-51
-87 -667 -1154 -812 -1405 -54 -93 -123 -213 -153 -265 -30 -52 -87 -151 -127
-220 -40 -69 -121 -210 -182 -315 -60 -104 -197 -341 -303 -525 -106 -184
-267 -463 -358 -620 -90 -157 -207 -359 -260 -450 -150 -260 -262 -453 -350
-606 -45 -77 -82 -149 -82 -160 1 -10 6 -29 13 -41 7 -13 139 -96 317 -199
168 -97 377 -218 465 -269 88 -51 170 -98 182 -104 34 -17 70 -13 96 12 14 12
79 117 145 232 66 116 185 323 264 460 79 138 198 342 263 455 65 113 143 248
173 300 30 52 96 167 147 255 51 88 159 275 240 415 81 140 208 361 283 490
74 129 174 303 222 385 48 83 239 413 425 735 185 322 341 589 346 595 5 5 9
-1339 9 -3391 0 -1871 -3 -3403 -6 -3406 -3 -3 -60 26 -127 64 -67 39 -223
129 -347 201 -124 71 -281 162 -350 202 -69 40 -215 124 -325 187 -280 162
-494 285 -605 350 -52 30 -169 98 -260 150 -91 52 -210 121 -265 153 -55 32
-174 101 -265 153 -181 104 -211 122 -635 366 -159 93 -369 213 -465 269 -96
55 -211 121 -255 147 -44 26 -145 84 -225 130 -80 46 -181 105 -225 130 -44
26 -161 93 -260 150 -99 57 -216 124 -260 150 -97 56 -211 123 -540 312 -826
477 -1279 738 -1495 864 l-245 142 -3 4113 c-1 2263 0 4120 3 4128 4 11 9 11
28 -1 12 -8 99 -59 192 -113z m-586 -9357 c135 -78 316 -182 401 -231 85 -49
211 -122 280 -162 69 -40 202 -116 295 -170 94 -54 208 -120 255 -148 47 -27
189 -109 315 -181 127 -73 275 -159 330 -191 55 -32 307 -177 560 -323 253
-145 512 -295 575 -332 63 -37 205 -119 315 -182 110 -64 304 -175 430 -248
127 -74 329 -190 450 -260 121 -70 265 -153 320 -185 96 -56 441 -255 780
-450 500 -289 647 -373 905 -522 358 -207 517 -299 603 -348 37 -22 66 -43 64
-48 -1 -5 -106 -68 -232 -141 -411 -236 -516 -296 -780 -449 -411 -237 -563
-325 -670 -387 -55 -32 -158 -91 -230 -133 -71 -41 -249 -144 -395 -228 -257
-148 -352 -203 -625 -361 -71 -41 -188 -109 -260 -150 -71 -41 -215 -124 -320
-185 -104 -60 -280 -162 -390 -225 -110 -63 -245 -141 -300 -173 -246 -142
-1092 -630 -1300 -750 -126 -73 -261 -151 -300 -174 -38 -23 -73 -41 -77 -41
-4 0 31 64 76 142 97 167 263 454 398 688 52 91 154 268 227 393 73 126 165
286 205 355 79 138 238 413 616 1067 223 387 281 488 470 815 37 63 110 189
162 280 52 91 150 259 217 375 72 125 121 220 121 236 0 15 -8 36 -17 47 -10
11 -110 73 -223 138 -113 65 -329 189 -480 276 -167 96 -285 158 -301 158 -41
0 -61 -24 -145 -170 -76 -134 -276 -480 -404 -700 -37 -63 -138 -239 -225
-390 -87 -151 -248 -430 -358 -620 -109 -190 -242 -419 -294 -510 -52 -91
-112 -194 -133 -230 -21 -36 -78 -135 -127 -220 -49 -85 -142 -245 -205 -355
-159 -274 -487 -844 -676 -1172 -86 -149 -160 -268 -164 -265 -3 4 -44 72 -90
152 -87 149 -127 218 -411 710 -90 157 -189 328 -219 380 -30 52 -115 199
-187 325 -73 127 -159 275 -191 330 -32 55 -133 231 -225 390 -264 457 -306
529 -410 710 -114 197 -206 355 -442 765 -93 162 -195 338 -225 390 -30 52
-99 172 -153 265 -54 94 -107 180 -118 193 -44 48 -20 60 -899 -451 -163 -94
-188 -119 -173 -166 3 -12 61 -115 127 -229 151 -261 317 -548 911 -1577 262
-454 293 -507 367 -635 40 -69 132 -228 205 -355 157 -273 261 -454 339 -587
94 -164 162 -280 336 -583 92 -159 177 -307 190 -327 12 -21 19 -38 16 -38 -3
0 -81 44 -173 97 -93 53 -251 144 -353 203 -102 59 -277 160 -390 225 -113 65
-275 159 -360 208 -85 49 -213 124 -285 165 -71 41 -218 126 -325 187 -191
110 -376 217 -635 367 -71 41 -335 193 -585 338 -250 144 -528 304 -617 356
-90 52 -238 137 -330 191 -93 53 -235 135 -318 183 -82 48 -301 174 -485 280
-184 106 -414 239 -510 295 -96 55 -253 146 -347 200 -95 55 -173 102 -173
105 0 3 39 27 88 54 48 27 123 70 167 96 76 45 307 178 605 350 213 123 770
445 935 540 83 48 344 198 580 335 237 136 547 315 690 398 382 221 524 303
890 514 182 105 476 275 655 378 179 104 440 254 580 335 140 81 300 173 355
205 148 86 405 234 615 355 102 59 244 140 315 182 72 41 204 118 295 170 91
53 208 121 260 151 52 31 101 56 109 56 8 1 125 -63 260 -141z"/>
</g>
</svg>
